<svg xmlns="http://www.w3.org/2000/svg" viewBox="0 0 64 64" fill="white">
  <rect x="14" y="14" width="36" height="36" rx="4" fill="none" stroke="white" stroke-width="2.5"/>
  <rect x="22" y="22" width="20" height="20" rx="2" fill="none" stroke="white" stroke-width="1.5"/>
  <text x="32" y="36" text-anchor="middle" font-size="9" font-family="sans-serif" font-weight="bold" fill="white">AI</text>
  <!-- pins -->
  <line x1="22" y1="8" x2="22" y2="14" stroke="white" stroke-width="2"/>
  <line x1="32" y1="8" x2="32" y2="14" stroke="white" stroke-width="2"/>
  <line x1="42" y1="8" x2="42" y2="14" stroke="white" stroke-width="2"/>
  <line x1="22" y1="50" x2="22" y2="56" stroke="white" stroke-width="2"/>
  <line x1="32" y1="50" x2="32" y2="56" stroke="white" stroke-width="2"/>
  <line x1="42" y1="50" x2="42" y2="56" stroke="white" stroke-width="2"/>
  <line x1="8" y1="22" x2="14" y2="22" stroke="white" stroke-width="2"/>
  <line x1="8" y1="32" x2="14" y2="32" stroke="white" stroke-width="2"/>
  <line x1="8" y1="42" x2="14" y2="42" stroke="white" stroke-width="2"/>
  <line x1="50" y1="22" x2="56" y2="22" stroke="white" stroke-width="2"/>
  <line x1="50" y1="32" x2="56" y2="32" stroke="white" stroke-width="2"/>
  <line x1="50" y1="42" x2="56" y2="42" stroke="white" stroke-width="2"/>
</svg>
