<!DOCTYPE svg PUBLIC "-//W3C//DTD SVG 1.1//EN" "http://www.w3.org/Graphics/SVG/1.1/DTD/svg11.dtd">
<!-- Uploaded to: SVG Repo, www.svgrepo.com, Transformed by: SVG Repo Mixer Tools -->
<svg fill="#ffffff" width="800px" height="800px" viewBox="-6.4 -6.4 44.80 44.80" id="icon" xmlns="http://www.w3.org/2000/svg">
<g id="SVGRepo_bgCarrier" stroke-width="0"/>
<g id="SVGRepo_tracerCarrier" stroke-linecap="round" stroke-linejoin="round"/>
<g id="SVGRepo_iconCarrier"> <defs> <style> .cls-1 { fill: none; } </style> </defs> <title>bot</title> <rect x="18" y="10" width="2" height="2"/> <rect x="12" y="10" width="2" height="2"/> <path d="M26,20H21V18h1a2.0023,2.0023,0,0,0,2-2V12h2V10H24V8a2.0023,2.0023,0,0,0-2-2H20V2H18V6H14V2H12V6H10A2.0023,2.0023,0,0,0,8,8v2H6v2H8v4a2.0023,2.0023,0,0,0,2,2h1v2H6a2.0023,2.0023,0,0,0-2,2v8H6V22H26v8h2V22A2.0023,2.0023,0,0,0,26,20ZM10,8H22v8H10Zm3,10h6v2H13Z"/> <rect id="_Transparent_Rectangle_" data-name="&lt;Transparent Rectangle&gt;" class="cls-1" width="32" height="32"/> </g>
</svg>