<!DOCTYPE svg PUBLIC "-//W3C//DTD SVG 1.1//EN" "http://www.w3.org/Graphics/SVG/1.1/DTD/svg11.dtd">

<!-- Uploaded to: SVG Repo, www.svgrepo.com, Transformed by: SVG Repo Mixer Tools -->
<svg width="800px" height="800px" viewBox="-3.4 -3.4 30.80 30.80" id="Layer_1" data-name="Layer 1" xmlns="http://www.w3.org/2000/svg" fill="#ffffff" stroke="#ffffff">

<g id="SVGRepo_bgCarrier" stroke-width="0"/>

<g id="SVGRepo_tracerCarrier" stroke-linecap="round" stroke-linejoin="round" stroke="#CCCCCC" stroke-width="0.04"/>

<g id="SVGRepo_iconCarrier">

<defs>

<style>.cls-1{fill:none;stroke:#ffffff;stroke-miterlimit:10;stroke-width:1.65px;}</style>

</defs>

<rect class="cls-1" x="3.38" y="3.38" width="17.25" height="17.25" rx="2.18"/>

<rect class="cls-1" x="7.21" y="7.21" width="9.58" height="9.58" rx="1.92"/>

<line class="cls-1" x1="7.21" y1="0.5" x2="7.21" y2="2.42"/>

<line class="cls-1" x1="12" y1="0.5" x2="12" y2="2.42"/>

<line class="cls-1" x1="16.79" y1="0.5" x2="16.79" y2="2.42"/>

<line class="cls-1" x1="7.21" y1="21.58" x2="7.21" y2="23.5"/>

<line class="cls-1" x1="12" y1="21.58" x2="12" y2="23.5"/>

<line class="cls-1" x1="16.79" y1="21.58" x2="16.79" y2="23.5"/>

<line class="cls-1" x1="0.5" y1="16.79" x2="2.42" y2="16.79"/>

<line class="cls-1" x1="0.5" y1="12" x2="2.42" y2="12"/>

<line class="cls-1" x1="0.5" y1="7.21" x2="2.42" y2="7.21"/>

<line class="cls-1" x1="21.58" y1="16.79" x2="23.5" y2="16.79"/>

<line class="cls-1" x1="21.58" y1="12" x2="23.5" y2="12"/>

<line class="cls-1" x1="21.58" y1="7.21" x2="23.5" y2="7.21"/>

</g>

</svg>