<svg xmlns="http://www.w3.org/2000/svg" viewBox="0 0 64 64" fill="white">
  <rect x="10" y="18" width="44" height="30" rx="4" fill="none" stroke="white" stroke-width="2.5"/>
  <circle cx="32" cy="33" r="10" fill="none" stroke="white" stroke-width="2"/>
  <circle cx="32" cy="33" r="4"/>
  <rect x="22" y="14" width="16" height="6" rx="2" fill="none" stroke="white" stroke-width="1.5"/>
  <!-- event spikes -->
  <line x1="8" y1="54" x2="14" y2="54" stroke="white" stroke-width="1.5"/>
  <line x1="14" y1="54" x2="14" y2="58" stroke="white" stroke-width="1.5"/>
  <line x1="14" y1="58" x2="20" y2="58" stroke="white" stroke-width="1.5"/>
  <line x1="20" y1="58" x2="20" y2="52" stroke="white" stroke-width="1.5"/>
  <line x1="20" y1="52" x2="26" y2="52" stroke="white" stroke-width="1.5"/>
  <line x1="26" y1="52" x2="26" y2="58" stroke="white" stroke-width="1.5"/>
  <line x1="26" y1="58" x2="32" y2="58" stroke="white" stroke-width="1.5"/>
  <line x1="32" y1="58" x2="32" y2="54" stroke="white" stroke-width="1.5"/>
  <line x1="32" y1="54" x2="38" y2="54" stroke="white" stroke-width="1.5"/>
  <line x1="38" y1="54" x2="38" y2="58" stroke="white" stroke-width="1.5"/>
  <line x1="38" y1="58" x2="44" y2="58" stroke="white" stroke-width="1.5"/>
  <line x1="44" y1="58" x2="44" y2="52" stroke="white" stroke-width="1.5"/>
  <line x1="44" y1="52" x2="50" y2="52" stroke="white" stroke-width="1.5"/>
  <line x1="50" y1="52" x2="50" y2="56" stroke="white" stroke-width="1.5"/>
  <line x1="50" y1="56" x2="56" y2="56" stroke="white" stroke-width="1.5"/>
</svg>
