<svg xmlns="http://www.w3.org/2000/svg" viewBox="0 0 64 64" fill="white">
  <rect x="18" y="18" width="28" height="28" rx="3" fill="none" stroke="white" stroke-width="2.5"/>
  <!-- brain-like pattern inside -->
  <path d="M26 28 Q32 22 38 28" fill="none" stroke="white" stroke-width="1.5"/>
  <path d="M26 36 Q32 42 38 36" fill="none" stroke="white" stroke-width="1.5"/>
  <line x1="32" y1="24" x2="32" y2="40" stroke="white" stroke-width="1.5"/>
  <circle cx="28" cy="32" r="2"/>
  <circle cx="36" cy="32" r="2"/>
  <!-- pins -->
  <line x1="24" y1="10" x2="24" y2="18" stroke="white" stroke-width="2"/>
  <line x1="32" y1="10" x2="32" y2="18" stroke="white" stroke-width="2"/>
  <line x1="40" y1="10" x2="40" y2="18" stroke="white" stroke-width="2"/>
  <line x1="24" y1="46" x2="24" y2="54" stroke="white" stroke-width="2"/>
  <line x1="32" y1="46" x2="32" y2="54" stroke="white" stroke-width="2"/>
  <line x1="40" y1="46" x2="40" y2="54" stroke="white" stroke-width="2"/>
  <line x1="10" y1="26" x2="18" y2="26" stroke="white" stroke-width="2"/>
  <line x1="10" y1="38" x2="18" y2="38" stroke="white" stroke-width="2"/>
  <line x1="46" y1="26" x2="54" y2="26" stroke="white" stroke-width="2"/>
  <line x1="46" y1="38" x2="54" y2="38" stroke="white" stroke-width="2"/>
</svg>
