<svg xmlns="http://www.w3.org/2000/svg" viewBox="0 0 64 64" fill="white">
  <!-- robot 1 -->
  <rect x="6" y="24" width="16" height="18" rx="3" fill="none" stroke="white" stroke-width="2"/>
  <circle cx="11" cy="30" r="2"/>
  <circle cx="19" cy="30" r="2"/>
  <line x1="10" y1="36" x2="20" y2="36" stroke="white" stroke-width="1.5"/>
  <line x1="14" y1="18" x2="14" y2="24" stroke="white" stroke-width="2"/>
  <circle cx="14" cy="16" r="3" fill="none" stroke="white" stroke-width="1.5"/>
  <!-- robot 2 -->
  <rect x="42" y="24" width="16" height="18" rx="3" fill="none" stroke="white" stroke-width="2"/>
  <circle cx="47" cy="30" r="2"/>
  <circle cx="55" cy="30" r="2"/>
  <line x1="46" y1="36" x2="56" y2="36" stroke="white" stroke-width="1.5"/>
  <line x1="50" y1="18" x2="50" y2="24" stroke="white" stroke-width="2"/>
  <circle cx="50" cy="16" r="3" fill="none" stroke="white" stroke-width="1.5"/>
  <!-- connection -->
  <path d="M22 32 Q32 20 42 32" fill="none" stroke="white" stroke-width="1.5" stroke-dasharray="3,2"/>
  <!-- legs -->
  <line x1="10" y1="42" x2="10" y2="50" stroke="white" stroke-width="2"/>
  <line x1="20" y1="42" x2="20" y2="50" stroke="white" stroke-width="2"/>
  <line x1="46" y1="42" x2="46" y2="50" stroke="white" stroke-width="2"/>
  <line x1="56" y1="42" x2="56" y2="50" stroke="white" stroke-width="2"/>
</svg>
