<svg xmlns="http://www.w3.org/2000/svg" xmlns:xlink="http://www.w3.org/1999/xlink" version="1.1" width="256" height="256" viewBox="0 0 256 256" xml:space="preserve">

<defs>
</defs>
<g style="stroke: none; stroke-width: 0; stroke-dasharray: none; stroke-linecap: butt; stroke-linejoin: miter; stroke-miterlimit: 10; fill: none; fill-rule: nonzero; opacity: 1;" transform="translate(1.4065934065934016 1.4065934065934016) scale(2.81 2.81)" >
	<path d="M 13.723 78.638 C 6.156 78.638 0 72.481 0 64.914 c 0 -2.713 0.791 -5.336 2.286 -7.587 c 2.554 -3.843 6.83 -6.137 11.437 -6.137 c 7.567 0 13.724 6.156 13.724 13.724 S 21.291 78.638 13.723 78.638 z M 13.723 53.19 c -3.936 0 -7.589 1.96 -9.771 5.244 C 2.675 60.355 2 62.597 2 64.914 c 0 6.465 5.259 11.724 11.723 11.724 s 11.724 -5.259 11.724 -11.724 S 20.188 53.19 13.723 53.19 z" style="stroke: none; stroke-width: 1; stroke-dasharray: none; stroke-linecap: butt; stroke-linejoin: miter; stroke-miterlimit: 10; fill: rgb(0,0,0); fill-rule: nonzero; opacity: 1;" transform=" matrix(1 0 0 1 0 0) " stroke-linecap="round" />
	<path d="M 13.723 70.243 c -2.938 0 -5.329 -2.391 -5.329 -5.329 c 0 -1.054 0.307 -2.072 0.889 -2.946 c 0.991 -1.492 2.651 -2.383 4.44 -2.383 c 2.938 0 5.329 2.391 5.329 5.329 S 16.662 70.243 13.723 70.243 z M 13.723 61.585 c -1.118 0 -2.155 0.557 -2.774 1.49 c -0.363 0.545 -0.554 1.181 -0.554 1.839 c 0 1.836 1.493 3.329 3.329 3.329 s 3.329 -1.493 3.329 -3.329 S 15.559 61.585 13.723 61.585 z" style="stroke: none; stroke-width: 1; stroke-dasharray: none; stroke-linecap: butt; stroke-linejoin: miter; stroke-miterlimit: 10; fill: rgb(0,0,0); fill-rule: nonzero; opacity: 1;" transform=" matrix(1 0 0 1 0 0) " stroke-linecap="round" />
	<path d="M 75.163 65.914 h -9.778 c -0.553 0 -1 -0.447 -1 -1 s 0.447 -1 1 -1 h 9.778 c 0.553 0 1 0.447 1 1 S 75.716 65.914 75.163 65.914 z" style="stroke: none; stroke-width: 1; stroke-dasharray: none; stroke-linecap: butt; stroke-linejoin: miter; stroke-miterlimit: 10; fill: rgb(0,0,0); fill-rule: nonzero; opacity: 1;" transform=" matrix(1 0 0 1 0 0) " stroke-linecap="round" />
	<path d="M 75.163 65.914 c -0.553 0 -1 -0.447 -1 -1 c 0 -4.74 3.856 -8.597 8.597 -8.597 H 89 c 0.553 0 1 0.447 1 1 s -0.447 1 -1 1 h -6.24 c -3.638 0 -6.597 2.959 -6.597 6.597 C 76.163 65.467 75.716 65.914 75.163 65.914 z" style="stroke: none; stroke-width: 1; stroke-dasharray: none; stroke-linecap: butt; stroke-linejoin: miter; stroke-miterlimit: 10; fill: rgb(0,0,0); fill-rule: nonzero; opacity: 1;" transform=" matrix(1 0 0 1 0 0) " stroke-linecap="round" />
	<path d="M 89 73.511 h -6.24 c -4.74 0 -8.597 -3.856 -8.597 -8.597 c 0 -0.553 0.447 -1 1 -1 s 1 0.447 1 1 c 0 3.638 2.959 6.597 6.597 6.597 H 89 c 0.553 0 1 0.447 1 1 S 89.553 73.511 89 73.511 z" style="stroke: none; stroke-width: 1; stroke-dasharray: none; stroke-linecap: butt; stroke-linejoin: miter; stroke-miterlimit: 10; fill: rgb(0,0,0); fill-rule: nonzero; opacity: 1;" transform=" matrix(1 0 0 1 0 0) " stroke-linecap="round" />
	<path d="M 22.817 74.81 v -2 l 33.675 -0.003 c 4.352 0 7.893 -3.541 7.893 -7.893 s -3.541 -7.893 -7.893 -7.893 H 22.817 v -2 h 33.675 c 5.455 0 9.893 4.438 9.893 9.893 s -4.438 9.893 -9.893 9.893 L 22.817 74.81 z" style="stroke: none; stroke-width: 1; stroke-dasharray: none; stroke-linecap: butt; stroke-linejoin: miter; stroke-miterlimit: 10; fill: rgb(0,0,0); fill-rule: nonzero; opacity: 1;" transform=" matrix(1 0 0 1 0 0) " stroke-linecap="round" />
	<path d="M 50.796 65.914 H 38.502 c -0.552 0 -1 -0.447 -1 -1 s 0.448 -1 1 -1 h 12.293 c 0.553 0 1 0.447 1 1 S 51.349 65.914 50.796 65.914 z" style="stroke: none; stroke-width: 1; stroke-dasharray: none; stroke-linecap: butt; stroke-linejoin: miter; stroke-miterlimit: 10; fill: rgb(0,0,0); fill-rule: nonzero; opacity: 1;" transform=" matrix(1 0 0 1 0 0) " stroke-linecap="round" />
	<path d="M 5.83 55.819 h -2 l 0.002 -34.564 c 0 -5.455 4.438 -9.893 9.893 -9.893 s 9.893 4.438 9.893 9.893 v 34.563 h -2 V 21.255 c 0 -4.352 -3.541 -7.893 -7.893 -7.893 s -7.893 3.541 -7.893 7.893 L 5.83 55.819 z" style="stroke: none; stroke-width: 1; stroke-dasharray: none; stroke-linecap: butt; stroke-linejoin: miter; stroke-miterlimit: 10; fill: rgb(0,0,0); fill-rule: nonzero; opacity: 1;" transform=" matrix(1 0 0 1 0 0) " stroke-linecap="round" />
	<path d="M 13.725 41.977 c -0.552 0 -1 -0.448 -1 -1 V 26.952 c 0 -0.552 0.448 -1 1 -1 s 1 0.448 1 1 v 14.025 C 14.725 41.529 14.277 41.977 13.725 41.977 z" style="stroke: none; stroke-width: 1; stroke-dasharray: none; stroke-linecap: butt; stroke-linejoin: miter; stroke-miterlimit: 10; fill: rgb(0,0,0); fill-rule: nonzero; opacity: 1;" transform=" matrix(1 0 0 1 0 0) " stroke-linecap="round" />
</g>
</svg>