<!DOCTYPE svg PUBLIC "-//W3C//DTD SVG 1.1//EN" "http://www.w3.org/Graphics/SVG/1.1/DTD/svg11.dtd">
<!-- Uploaded to: SVG Repo, www.svgrepo.com, Transformed by: SVG Repo Mixer Tools -->
<svg fill="#ffffff" height="800px" width="800px" version="1.1" id="Layer_1" xmlns="http://www.w3.org/2000/svg" xmlns:xlink="http://www.w3.org/1999/xlink" viewBox="-146.2 -146.2 800.40 800.40" xml:space="preserve">
<g id="SVGRepo_bgCarrier" stroke-width="0"/>
<g id="SVGRepo_tracerCarrier" stroke-linecap="round" stroke-linejoin="round"/>
<g id="SVGRepo_iconCarrier"> <g> <g> <path d="M465.7,0H42.3C19,0,0,19,0,42.3v103.5c0,10.8,4.1,20.7,10.9,28.2C4.1,181.5,0,191.4,0,202.3v103.5 c0,10.8,4.1,20.7,10.9,28.2C4.1,341.5,0,351.3,0,362.2v103.5C0,489,19,508,42.3,508h423.3c23.3,0,42.3-19,42.3-42.3V362.2 c0-10.8-4.1-20.7-10.9-28.2c6.7-7.5,10.9-17.4,10.9-28.2V202.3c0-10.8-4.1-20.7-10.9-28.2c6.7-7.5,10.9-17.4,10.9-28.2V42.3h0.1 C508,19,489,0,465.7,0z M465.7,479.8H42.3c-7.8,0-14.1-6.3-14.1-14.1V362.2c0-7.8,6.3-14.1,14.1-14.1h423.3 c7.8,0,14.1,6.3,14.1,14.1v103.5h0.1C479.8,473.5,473.5,479.8,465.7,479.8z M465.7,319.8H42.3c-7.8,0-14.1-6.3-14.1-14.1V202.3 c0-7.8,6.3-14.1,14.1-14.1h423.3c7.8,0,14.1,6.3,14.1,14.1v103.4h0.1C479.8,313.5,473.5,319.8,465.7,319.8z M465.7,159.9H42.3 c-7.8,0-14.1-6.3-14.1-14.1V42.3c0-7.8,6.3-14.1,14.1-14.1h423.3c7.8,0,14.1,6.3,14.1,14.1v103.5h0.1 C479.8,153.6,473.5,159.9,465.7,159.9z"/> </g> </g> <g> <g> <path d="M77.6,54.9c-7.8,0-14.1,6.3-14.1,14.1v50c0,7.8,6.3,14.1,14.1,14.1c7.8,0,14.1-6.3,14.1-14.1V69 C91.7,61.3,85.4,54.9,77.6,54.9z"/> </g> </g> <g> <g> <path d="M135.4,54.9c-7.8,0-14.1,6.3-14.1,14.1v50c0,7.8,6.3,14.1,14.1,14.1c7.8,0,14.1-6.3,14.1-14.1V69 C149.5,61.3,143.2,54.9,135.4,54.9z"/> </g> </g> <g> <g> <path d="M193.2,54.9c-7.8,0-14.1,6.3-14.1,14.1v50c0,7.8,6.3,14.1,14.1,14.1s14.1-6.3,14.1-14.1V69 C207.3,61.3,201,54.9,193.2,54.9z"/> </g> </g> <g> <g> <path d="M430.4,80H307.9c-7.8,0-14.1,6.3-14.1,14.1s6.3,14.1,14.1,14.1h122.5c7.8,0,14.1-6.3,14.1-14.1S438.2,80,430.4,80z"/> </g> </g> <g> <g> <path d="M77.6,214.9c-7.8,0-14.1,6.3-14.1,14.1v50c0,7.8,6.3,14.1,14.1,14.1c7.8,0,14.1-6.3,14.1-14.1v-50 C91.7,221.2,85.4,214.9,77.6,214.9z"/> </g> </g> <g> <g> <path d="M135.4,214.9c-7.8,0-14.1,6.3-14.1,14.1v50c0,7.8,6.3,14.1,14.1,14.1c7.8,0,14.1-6.3,14.1-14.1v-50 C149.5,221.2,143.2,214.9,135.4,214.9z"/> </g> </g> <g> <g> <path d="M193.2,214.9c-7.8,0-14.1,6.3-14.1,14.1v50c0,7.8,6.3,14.1,14.1,14.1s14.1-6.3,14.1-14.1v-50 C207.3,221.2,201,214.9,193.2,214.9z"/> </g> </g> <g> <g> <path d="M430.4,239.9H307.9c-7.8,0-14.1,6.3-14.1,14.1s6.3,14.1,14.1,14.1h122.5c7.8,0,14.1-6.3,14.1-14.1 S438.2,239.9,430.4,239.9z"/> </g> </g> <g> <g> <path d="M77.6,374.8c-7.8,0-14.1,6.3-14.1,14.1v50c0,7.8,6.3,14.1,14.1,14.1c7.8,0,14.1-6.3,14.1-14.1v-50 C91.7,381.1,85.4,374.8,77.6,374.8z"/> </g> </g> <g> <g> <path d="M135.4,374.8c-7.8,0-14.1,6.3-14.1,14.1v50c0,7.8,6.3,14.1,14.1,14.1c7.8,0,14.1-6.3,14.1-14.1v-50 C149.5,381.1,143.2,374.8,135.4,374.8z"/> </g> </g> <g> <g> <path d="M193.2,374.8c-7.8,0-14.1,6.3-14.1,14.1v50c0,7.8,6.3,14.1,14.1,14.1s14.1-6.3,14.1-14.1v-50 C207.3,381.1,201,374.8,193.2,374.8z"/> </g> </g> <g> <g> <path d="M430.4,399.8H307.9c-7.8,0-14.1,6.3-14.1,14.1s6.3,14.1,14.1,14.1h122.5c7.8,0,14.1-6.3,14.1-14.1 C444.5,406.1,438.2,399.8,430.4,399.8z"/> </g> </g> </g>
</svg>